<?xml version="1.0" encoding="UTF-8"?>
<svg id="Layer_1" data-name="Layer 1" xmlns="http://www.w3.org/2000/svg" viewBox="0 0 977.06 192.88">
  <defs>
    <style>
      .cls-1, .cls-2, .cls-3 {
        stroke-width: 0px;
      }

      .cls-2 {
        fill: #f04926;
      }

      .cls-3 {
        fill: #0c0c0c;
      }
    </style>
  </defs>
  <path class="cls-3" d="m22.1,38.56c8.52-6.06,18.34-9.09,29.46-9.09,14.27,0,26.43,5.03,36.49,15.08,10.05,10.05,15.08,22.21,15.08,36.49s-5.03,26.43-15.08,36.49c-10.05,10.05-22.21,15.08-36.49,15.08s-26.43-5.02-36.49-15.08C5.02,107.46,0,95.3,0,81.03V0h22.1v38.56Zm50.3,63.3c5.75-5.75,8.63-12.7,8.63-20.83s-2.88-15.08-8.63-20.83-12.7-8.63-20.83-8.63-15.08,2.88-20.83,8.63-8.63,12.7-8.63,20.83,2.88,15.08,8.63,20.83,12.7,8.63,20.83,8.63,15.08-2.88,20.83-8.63Z"/>
  <path class="cls-1" d="m110.61,89.75v-51.56s22.1,0,22.1,0v51.56c0,8.13,2.88,15.08,8.63,20.83,5.75,5.75,12.7,8.63,20.83,8.63,8.13,0,15.08-2.88,20.83-8.63,5.75-5.75,8.63-12.7,8.63-20.83v-51.56s22.1,0,22.1,0v103.13c0,14.27-5.03,26.43-15.08,36.49-10.05,10.05-22.21,15.08-36.49,15.08v-22.1c8.13,0,15.08-2.88,20.83-8.63,5.75-5.75,8.63-12.7,8.63-20.83v-9.09c-8.52,6.06-18.34,9.09-29.46,9.09-14.27,0-26.43-5.02-36.49-15.08-10.05-10.05-15.08-22.21-15.08-36.49Z"/>
  <path class="cls-1" d="m383.04,81.03c0,14.27-5.03,26.43-15.08,36.49-10.05,10.05-22.21,15.08-36.49,15.08s-26.43-5.02-36.49-15.08c-10.05-10.05-15.08-22.21-15.08-36.49s5.02-26.43,15.08-36.49c10.05-10.05,22.21-15.08,36.49-15.08,11.12,0,20.95,3.03,29.46,9.09v-9.09h22.1v51.56Zm-30.73,20.83c5.75-5.75,8.63-12.7,8.63-20.83s-2.88-15.08-8.63-20.83-12.7-8.63-20.83-8.63-15.08,2.88-20.83,8.63-8.63,12.7-8.63,20.83,2.88,15.08,8.63,20.83,12.7,8.63,20.83,8.63,15.08-2.88,20.83-8.63Z"/>
  <path class="cls-1" d="m419.87,132.59h-22.1v-51.56c0-14.27,5.02-26.43,15.08-36.49,10.05-10.05,22.21-15.08,36.49-15.08s26.43,5.03,36.49,15.08c10.05,10.05,15.08,22.21,15.08,36.49v51.56h-22.1v-51.56c0-8.13-2.88-15.08-8.63-20.83s-12.7-8.63-20.83-8.63-15.08,2.88-20.83,8.63-8.63,12.7-8.63,20.83v51.56Z"/>
  <path class="cls-1" d="m537.73,81.03c0,8.13,2.88,15.08,8.63,20.83s12.7,8.63,20.83,8.63,15.08-2.88,20.83-8.63,8.63-12.7,8.63-20.83V29.46h22.1v51.56c0,14.27-5.03,26.43-15.08,36.49-10.05,10.05-22.21,15.08-36.49,15.08s-26.43-5.02-36.49-15.08c-10.05-10.05-15.08-22.21-15.08-36.49V29.46h22.1v51.56Z"/>
  <path class="cls-1" d="m633.49,81.03c0-14.27,5.02-26.43,15.08-36.49,10.05-10.05,22.21-15.08,36.49-15.08v22.1c-8.13,0-15.08,2.88-20.83,8.63s-8.63,12.7-8.63,20.83v51.56h-22.1v-51.56Z"/>
  <path class="cls-1" d="m802.92,81.03c0,14.27-5.03,26.43-15.08,36.49-10.05,10.05-22.21,15.08-36.49,15.08s-26.43-5.02-36.49-15.08c-10.05-10.05-15.08-22.21-15.08-36.49s5.02-26.43,15.08-36.49c10.05-10.05,22.21-15.08,36.49-15.08,11.12,0,20.95,3.03,29.46,9.09v-9.09h22.1v51.56Zm-30.73,20.83c5.75-5.75,8.63-12.7,8.63-20.83s-2.88-15.08-8.63-20.83-12.7-8.63-20.83-8.63-15.08,2.88-20.83,8.63-8.63,12.7-8.63,20.83,2.88,15.08,8.63,20.83,12.7,8.63,20.83,8.63,15.08-2.88,20.83-8.63Z"/>
  <path class="cls-3" d="m898.58,123.49c-8.52,6.06-18.34,9.09-29.46,9.09-14.27,0-26.43-5.02-36.49-15.08-10.05-10.05-15.08-22.21-15.08-36.49,0-14.27,5.02-26.43,15.08-36.49,10.05-10.05,22.21-15.08,36.49-15.08,14.27,0,26.43,5.03,36.49,15.08,10.05,10.05,15.08,22.21,15.08,36.49v51.56c0,14.27-5.03,26.43-15.08,36.49-10.05,10.05-22.21,15.08-36.49,15.08v-22.1c8.13,0,15.08-2.88,20.83-8.63,5.75-5.75,8.63-12.7,8.63-20.83v-9.09Zm-29.46-13.01c8.13,0,15.08-2.88,20.83-8.63,5.75-5.75,8.63-12.7,8.63-20.83s-2.88-15.08-8.63-20.83c-5.75-5.75-12.7-8.63-20.83-8.63s-15.08,2.88-20.83,8.63c-5.75,5.75-8.63,12.7-8.63,20.83,0,8.13,2.88,15.08,8.63,20.83s12.7,8.63,20.83,8.63Z"/>
  <circle class="cls-2" cx="962.54" cy="132.59" r="14.52"/>
</svg>