<?xml version="1.0" encoding="UTF-8"?>
<svg id="Layer_1" data-name="Layer 1" xmlns="http://www.w3.org/2000/svg" viewBox="0 0 972.23 146.58">
  <defs>
    <style>
      .cls-1, .cls-2 {
        stroke-width: 0px;
      }

      .cls-2 {
        fill: #f04926;
      }
    </style>
  </defs>
  <circle class="cls-2" cx="792.58" cy="130.17" r="16.39"/>
  <g>
    <path class="cls-1" d="m121.95,127.01l.3.3c-6.55,6.05-13.99,10.72-22.43,14.09-8.34,3.37-17.36,5.06-26.79,5.06-13.5,0-25.7-3.27-36.71-9.82-11.11-6.55-19.94-15.38-26.49-26.39C3.27,99.13,0,86.92,0,73.53s3.27-25.7,9.82-36.81c6.55-11.01,15.38-19.85,26.49-26.39C47.33,3.77,59.54.5,73.03.5c9.63,0,18.65,1.69,27.09,5.16,8.53,3.47,16.07,8.34,22.62,14.39l-13.89,13.99c-4.76-4.37-10.22-7.74-16.37-10.22-6.05-2.38-12.6-3.67-19.45-3.67-9.82,0-18.75,2.38-26.89,7.24-8.04,4.76-14.49,11.21-19.25,19.25-4.86,8.14-7.24,17.07-7.24,26.89s2.38,18.65,7.24,26.79c4.76,8.04,11.21,14.49,19.25,19.25,8.14,4.86,17.07,7.24,26.89,7.24,6.75,0,13.1-1.19,19.15-3.57s11.41-5.66,16.17-9.82l13.59,13.59Z"/>
    <path class="cls-1" d="m206.89,47.03c8.14,4.76,14.49,11.21,19.35,19.35,4.76,8.04,7.14,16.97,7.14,26.79s-2.38,18.75-7.14,26.89c-4.86,8.04-11.21,14.49-19.35,19.25-8.04,4.86-16.97,7.24-26.79,7.24s-18.85-2.38-26.89-7.24c-8.04-4.76-14.49-11.21-19.25-19.25-4.86-8.14-7.24-17.07-7.24-26.89s2.38-18.75,7.24-26.79c4.76-8.14,11.21-14.59,19.25-19.35s17.07-7.24,26.89-7.24,18.75,2.48,26.79,7.24Zm-2.98,69.96c6.55-6.55,9.82-14.49,9.82-23.81s-3.27-17.17-9.82-23.81c-6.65-6.55-14.59-9.82-23.81-9.82s-17.27,3.27-23.81,9.82c-6.65,6.65-9.92,14.59-9.92,23.81s3.27,17.27,9.92,23.81c6.55,6.55,14.49,9.92,23.81,9.92s17.17-3.37,23.81-9.92Z"/>
    <path class="cls-1" d="m327.06,44.75c7.05,3.37,12.9,7.64,17.46,12.9s8.04,10.72,10.22,16.57c2.28,5.76,3.37,11.11,3.37,15.98l-.1,56.36h-19.55v-46.93c.5-9.43-.99-17.07-4.27-22.92-3.37-5.85-7.64-10.22-13-13-5.36-2.68-10.92-4.17-16.67-4.17-7.94-.2-15.18,2.58-21.73,8.34-6.65,5.85-10.52,14.78-11.71,27.09v10.62c.1,4.47.1,9.33.1,14.69s-.1,10.42-.1,14.88v11.41h-19.75v-.3l.1-54.97v-1.39l.1-50.31,19.65.1v11.61c9.23-7.54,19.45-11.41,30.66-11.71,9.72.1,18.06,1.89,25.2,5.16Z"/>
    <path class="cls-1" d="m455.26,115.4l13.89,13.99c-.99,1.09-2.08,2.18-3.18,3.18-10.62,9.23-22.52,13.79-35.82,13.79-7.54,0-14.69-1.49-21.63-4.56-6.85-2.98-12.8-7.34-17.96-13-9.72-10.92-14.29-23.81-13.79-38.4.89-14.69,6.75-26.99,17.56-37.01,10.12-8.93,22.03-13.59,35.52-13.79h.3c7.44,0,14.69,1.59,21.53,4.56,6.85,3.08,12.9,7.44,18.06,13,.5.6.99,1.09,1.39,1.69l-13.89,13.99h-.1c-.6-.79-1.29-1.69-1.98-2.48-7.14-7.34-15.48-11.01-25.01-11.01h-.2c-8.53.1-16.07,2.98-22.43,8.63-6.95,6.65-10.62,14.39-11.01,23.42-.5,8.93,2.38,17.07,8.63,24.21,7.14,7.44,15.48,11.11,25.01,11.11,8.34,0,15.88-2.88,22.62-8.73.89-.79,1.79-1.69,2.48-2.58Z"/>
    <path class="cls-1" d="m492.07,16.67c-2.08-1.89-3.08-4.17-3.08-6.85s.99-5.06,3.08-6.95,4.56-2.88,7.44-2.88,5.36.99,7.44,2.88,3.08,4.17,3.08,6.95-.99,4.96-3.08,6.85c-2.08,1.98-4.56,2.88-7.44,2.88s-5.36-.89-7.44-2.88Zm-2.28,23.02h19.65l-.1,106.87-19.75-.1.2-106.77Z"/>
    <path class="cls-1" d="m594.67,87.82c5.46,1.79,10.42,3.87,15.08,6.35,4.56,2.58,8.34,5.76,11.11,9.43,2.78,3.77,4.07,8.43,3.97,13.89-.2,4.86-1.79,9.53-4.96,14.09-3.08,4.56-8.04,8.24-14.88,11.01-6.85,2.78-15.88,4.17-27.19,3.97-8.93-.2-16.47-1.39-22.43-3.57-6.05-2.08-10.92-4.76-14.69-7.74-3.67-3.08-6.55-6.05-8.53-9.13-1.89-3.08-3.27-5.66-3.97-7.74l-.99-2.68,20.94-4.96.99,2.38c.69,2.18,2.08,4.27,4.07,6.35,2.08,2.18,5.16,3.97,9.43,5.46s10.22,2.28,17.86,2.48h.2c1.89,0,4.47-.2,7.84-.69,3.47-.5,6.55-1.39,9.43-2.58,2.88-1.09,4.47-2.68,4.76-4.56.2-4.37-2.28-7.74-7.54-10.22-5.16-2.48-12.5-4.86-22.03-7.14-5.16-1.39-9.72-2.78-13.5-4.27-3.67-1.59-7.74-3.47-11.91-5.85-9.92-5.46-14.69-13.2-14.39-22.92.3-8.73,4.47-15.88,12.5-21.53,8.83-5.66,19.15-8.34,31.06-8.14,24.21.6,39.79,10.12,46.64,28.58l.99,2.78-20.94,4.96-.99-2.48c-.69-2.28-1.98-4.47-3.97-6.65-1.89-2.18-5.16-4.07-9.72-5.56-4.56-1.59-9.03-2.38-13.4-2.48-.6-.1-1.19-.1-1.79-.1-6.25.1-10.82,1.19-13.79,3.27-2.98,2.18-4.66,4.76-4.86,7.84.2,3.27,2.28,5.85,6.35,7.94,4.07,2.08,9.72,3.97,17.07,5.76,5.26,1.29,10.72,2.78,16.17,4.47Z"/>
    <path class="cls-1" d="m729.72,97.04l-66.98-.1c1.19,8.53,4.76,15.68,10.92,21.23,6.25,5.56,13.69,8.53,22.62,8.73,6.25-.1,13.1-1.29,20.34-3.57,7.34-2.18,13.2-5.06,17.86-8.34h.1l10.62,15.58c-8.73,6.05-16.97,10.22-24.61,12.6-7.64,2.38-15.78,3.47-24.41,3.37-14.39-.3-26.59-5.16-36.42-14.49-9.92-9.23-15.48-21.04-16.77-35.23-.1-1.19-.1-2.38-.1-3.67,0-5.66.89-10.92,2.48-16.07,3.57-11.01,9.92-19.85,19.05-26.69,9.13-6.85,19.75-10.32,31.85-10.52,12.11.2,22.72,3.67,31.85,10.52,9.03,6.85,15.38,15.78,19.05,26.79,1.59,5.06,2.38,10.42,2.38,16.07,0,1.19,0,2.48-.1,3.77h-19.75Zm-1.79-21.73c-2.88-5.36-6.95-9.63-12.11-12.8s-11.01-4.76-17.46-4.86c-6.45,0-12.3,1.69-17.46,4.86s-9.23,7.44-12.11,12.7l59.14.1Z"/>
  </g>
  <g>
    <path class="cls-1" d="m933.33,95.16v51.4h-19.65v-12.11c-4.66,3.77-9.82,6.75-15.58,8.83-5.76,2.18-11.81,3.18-18.16,3.18-9.82,0-18.75-2.38-26.79-7.14-8.14-4.86-14.59-11.31-19.35-19.35-4.86-8.14-7.24-17.07-7.24-26.89s2.38-18.75,7.24-26.79c4.76-8.14,11.21-14.59,19.35-19.35,8.04-4.86,16.97-7.24,26.79-7.24,6.35,0,12.4,1.09,18.16,3.18,5.66,2.08,10.92,5.06,15.48,8.83v-12.11h19.65l.1,51.4v4.17Zm-19.75-.4v-3.37c-.6-9.13-4.17-16.77-10.52-22.82-6.45-6.15-14.09-9.23-23.12-9.23s-17.27,3.37-23.81,9.92c-6.65,6.65-9.92,14.59-9.92,23.81s3.27,17.27,9.92,23.91,14.49,9.82,23.81,9.82,16.77-3.08,23.12-9.13c6.35-6.15,9.92-13.69,10.52-22.82v-.1Z"/>
    <path class="cls-1" d="m954.27,16.67c-2.08-1.89-3.08-4.17-3.08-6.85s.99-5.06,3.08-6.95,4.56-2.88,7.44-2.88,5.36.99,7.44,2.88,3.08,4.17,3.08,6.95-.99,4.96-3.08,6.85c-2.08,1.98-4.56,2.88-7.44,2.88s-5.36-.89-7.44-2.88Zm-2.28,23.02h19.65l-.1,106.87-19.75-.1.2-106.77Z"/>
  </g>
</svg>